<?xml version="1.0"?>
<svg xmlns="http://www.w3.org/2000/svg" height="512px" viewBox="-71 0 457 457.14286" width="512px"><g><path d="m290.886719 166.367188h-34.882813v-67.335938c0-54.605469-44.421875-99.03125-99.027344-99.03125-54.605468 0-99.03125 44.425781-99.03125 99.03125v67.335938h-33.269531c-13.570312 0-24.6054685 11.035156-24.6054685 24.597656v241.574218c0 13.566407 11.0351565 24.605469 24.6054685 24.605469h266.210938c13.570312 0 24.605469-11.039062 24.605469-24.605469v-241.574218c0-13.5625-11.035157-24.597656-24.605469-24.597656zm-214.65625-67.335938c0-44.523438 36.226562-80.746094 80.746093-80.746094 44.523438 0 80.742188 36.222656 80.742188 80.746094v67.335938h-161.488281zm220.976562 333.507812c0 3.484376-2.835937 6.316407-6.320312 6.316407h-266.210938c-3.484375 0-6.320312-2.832031-6.320312-6.316407v-241.574218c0-3.484375 2.835937-6.3125 6.320312-6.3125h266.210938c3.484375 0 6.320312 2.828125 6.320312 6.3125zm0 0" data-original="#000000" class="active-path" data-old_color="#000000" fill="#267DF4"/><path d="m157.730469 267.769531c-16.707031 0-30.300781 13.636719-30.300781 30.398438 0 13.566406 8.957031 24.949219 21.207031 28.851562v19.578125c0 5.050782 4.09375 9.144532 9.144531 9.144532s9.144531-4.09375 9.144531-9.144532v-19.601562c12.253907-3.921875 21.207031-15.289063 21.207031-28.828125 0-16.761719-13.636718-30.398438-30.402343-30.398438zm0 42.515625c-6.625 0-12.015625-5.433594-12.015625-12.117187 0-6.679688 5.390625-12.113281 12.015625-12.113281 6.679687 0 12.117187 5.433593 12.117187 12.113281 0 6.796875-5.320312 12.117187-12.117187 12.117187zm0 0" data-original="#000000" class="active-path" data-old_color="#000000" fill="#267DF4"/></g> </svg>
